<?xml version="1.0" encoding="utf-8"?>
<!-- Generator: Adobe Illustrator 21.0.0, SVG Export Plug-In . SVG Version: 6.00 Build 0)  -->
<svg version="1.1" id="Слой_1" xmlns="http://www.w3.org/2000/svg" xmlns:xlink="http://www.w3.org/1999/xlink" x="0px" y="0px"
	 viewBox="0 0 454.4 327.1" style="enable-background:new 0 0 454.4 327.1;" xml:space="preserve">
<style type="text/css">
	.st0{fill:#FFFFFF;}
</style>
<path class="st0" d="M385.5,14.9c3.2,7.2,1.6,10.4-7,11.2c-15.6,1.5-29.5-3-41.3-12.5c-6.6-5.3-5.1-9.4,3.8-13.2
	c-0.3-0.1-0.6-0.4-0.9-0.4c-6,0.4-13.2-0.4-15.5,6c-2.2,6.2,3.6,10,8.4,13.1c13.6,9,28.9,13.4,45.5,13.3c1.3,0,2.5-0.1,3.7-0.2
	c0.3,0,0.7,0.2,1,0.4c0.8,11.6-6.4,19.1-18.8,19.4c-12.4,0.3-23.6-3.5-34.6-9.3c10.3,11.2,35.9,15.4,52.3,8.6c3.6,3,6.4,6.4,5.3,11
	c-1.1,4.7-5.5,6.1-10,6.9c-15.6,2.7-30.4-0.8-44.4-6.8c-7.1-3.1-13.6-7.5-19.8-11.9c-3.6-2.6-6.4-6.6-4.8-11.3
	c1.6-4.6,6.3-5.8,10.9-6.6c3-0.5,6-0.7,9-1c-0.1-0.4-0.1-0.9-0.2-1.3c-8.2,0.8-16.6,0.9-24.5,2.7c-10.3,2.4-12.6,9.6-6.1,17.7
	c6.9,8.7,16.8,14,27.3,18.3c17.9,7.4,36.4,11.7,55.9,9.9c1,9.4-6,19-15.5,21c-12.3,2.6-24.2,0.1-35.8-3.9c-5.8-2-11.3-4.7-17.1-7.2
	c12.7,14.1,55.3,22.1,68.8,9.8c4.2,3.2,7.1,7,6.7,12.1s-4.6,7.8-9.4,8.7c-5.9,1.1-12,2-18,1.7c-19.7-1.1-38.1-6.7-54.5-17.2
	c-4.5-2.9-8.6-6.7-11.8-10.8c-5.1-6.4-2.8-13.1,5.4-15.6c5.9-1.8,12.4-2.2,18.6-4.1c-9.7,0.6-19.7,0.3-29.1,2
	c-15.7,2.9-18.9,13.2-8.4,24.4c10.3,11,23.9,17.5,38.3,22.8c19,7,38.5,11.2,58.9,9.3c0.7-0.1,1.3,0.2,2,0.2
	c-0.1,17.6-12.7,30.2-31.7,31c-24.8,1.1-47.4-6.1-68.4-18.1c-1.1-0.7-2.2-1.4-3.3-2.1c-0.3,0.4-0.6,0.7-0.9,1.1
	c5.1,3.6,9.8,7.6,15.3,10.6c21.3,11.9,44.5,15.9,68.8,13.7c13.6-1.2,22.4-7.5,24.6-20.3c0.5-3,1.4-6,2-9.1c1-5.1,1.6-9.8,7.6-12.9
	c4.8-2.5,6.2-7.9,3.2-12.5c-3.3-5-7.6-9.5-11.9-13.9c-1.9-1.9-3.2-3.1-2-5.8s1.8-5.6,2.3-8.5c0.7-4.6,1.7-8.5,7-11
	c4.5-2.1,5.3-7.2,2.3-11.7c-2.5-3.7-6.2-6.8-9.1-10.4c-1-1.3-1.6-3.3-1.4-4.9c0.5-3.4,1.7-6.6,2.4-10c0.7-3.3,1.3-6.4,4.4-9
	c1.5-1.2,1.5-4.8,0.8-7.1c-0.8-2.6-3-4.8-4.6-7.2C386.4,14.3,385.9,14.6,385.5,14.9z"/>
<g>
	<path class="st0" d="M6.9,155.6c0,1.2,0.4,2.2,1,2.9c0.7,0.8,1.6,1.1,2.6,1.1c1.2,0,2.3-0.6,3.4-1.7c1-1.1,1.6-2.3,1.7-3.7v-0.4
		c0-2.7-0.1-5.2-0.3-7.4c1.5-0.3,3.7-0.4,6.5-0.4c0.3,2,0.4,4.4,0.4,7.3v12.8c0,2.2,0.4,3.6,1.1,4.2c-1.3,0.6-3,0.9-5,0.9
		c-0.8,0-1.5-0.3-2-0.8c-0.5-0.6-0.7-1.6-0.7-3.2v-7.9c-0.6,1.1-1.6,2-3.1,2.7s-3.3,1.1-5.2,1.1c-2,0-3.6-0.6-4.8-1.9
		c-1.2-1.2-1.9-2.8-1.9-4.8v-2.5c0-2.5-0.2-5-0.6-7.3c1.5-0.4,3.7-0.6,6.7-0.6c0.3,1.7,0.4,4.2,0.4,7.4L6.9,155.6z"/>
	<path class="st0" d="M43.2,165.9c-0.6,1.7-1.5,3.1-2.8,4.1s-2.9,1.6-5,1.6c-2.2,0-4-0.6-5.4-1.8s-2.1-2.7-2.1-4.7
		c0-2.6,1.4-4.7,4.1-6.2s6.4-2.5,11-2.9v-1.7c0-1.4-0.4-2.5-1.3-3.4c-0.9-0.8-2-1.2-3.4-1.2c-1.3,0-2.4,0.4-3.3,1.3
		s-1.3,1.9-1.3,3.1c-3.4,0-5.1-0.9-5.1-2.8c0-1.3,1-2.6,3.1-3.7c2-1.1,4.6-1.7,7.8-1.7c3.1,0,5.5,0.7,7.3,2.2
		c1.8,1.4,2.7,3.4,2.7,5.7v12.3c0,2.2,0.4,3.6,1.1,4.2c-1.3,0.6-3,0.9-5,0.9c-0.8,0-1.4-0.3-1.9-0.8c-0.5-0.6-0.7-1.6-0.7-3.2
		L43.2,165.9z M37.9,167.6c1.3,0,2.5-0.7,3.6-2s1.7-2.8,1.7-4.4v-2.1c-5.8,0.6-8.7,2.4-8.7,5.5c0,0.9,0.3,1.7,0.9,2.3
		c0.6,0.6,1.4,0.9,2.4,0.9L37.9,167.6z"/>
	<path class="st0" d="M56.5,154.1c0-2.5-0.2-5-0.6-7.3c1.5-0.4,3.6-0.6,6.4-0.6c0.5,1.7,0.7,3.5,0.7,5.5v0.3
		c0.6-1.8,1.5-3.3,2.8-4.3s2.9-1.6,4.9-1.6c2.7,0,5,1,6.7,3.2c1.7,2.1,2.6,4.9,2.6,8.3c0,4.1-1.1,7.5-3.3,10.1s-5.2,3.9-8.9,3.9
		c-1.9,0-3.4-0.5-4.6-1.3v7.9c0,2.1,0.2,3.6,0.6,4.3c-1.2,0.5-2.7,0.8-4.5,0.8c-0.8,0-1.5-0.3-2-0.8c-0.5-0.6-0.7-1.6-0.7-3.2
		L56.5,154.1z M68.2,149.6c-1.3,0-2.5,0.9-3.5,2.6c-1,1.8-1.5,3.7-1.6,5.8v8.2c1.2,1,2.6,1.4,4.4,1.4c1.7,0,2.9-0.9,3.9-2.6
		c0.9-1.8,1.4-4.1,1.4-6.9c0-2.5-0.4-4.6-1.3-6.2C70.6,150.4,69.5,149.7,68.2,149.6L68.2,149.6z"/>
	<path class="st0" d="M85,137.5c0-1.1,0.4-2,1.1-2.6c0.7-0.7,1.7-1,2.8-1c1,0,1.8,0.3,2.4,0.9c0.6,0.6,0.9,1.4,0.9,2.5
		s-0.4,2-1.1,2.6c-0.7,0.7-1.7,1-2.8,1c-1,0-1.8-0.3-2.4-0.9C85.4,139.4,85.1,138.5,85,137.5L85,137.5z M85.6,154.1
		c0-2.6-0.2-5-0.6-7.3c1.5-0.4,3.7-0.6,6.7-0.6c0.3,1.7,0.4,4.2,0.4,7.4v12.7c0,2.2,0.4,3.6,1.1,4.2c-1.3,0.6-3,0.9-4.9,0.9
		c-0.8,0-1.5-0.3-2-0.8c-0.5-0.6-0.7-1.6-0.7-3.2V154.1z"/>
	<path class="st0" d="M101.9,171.2c-0.8,0-1.5-0.3-2-0.8c-0.5-0.6-0.7-1.6-0.7-3.2v-12.9c0-2.5-0.2-5-0.6-7.3
		c1.5-0.4,3.6-0.6,6.4-0.6h6c2.6,0,4.8,0.6,6.4,1.7c1.6,1.1,2.4,2.6,2.4,4.6c0,2.4-1.2,4.2-3.6,5.5c1.5,0.5,2.6,1.3,3.5,2.3
		c0.8,1,1.2,2.2,1.2,3.6c0,2.1-0.9,3.8-2.8,5.1s-4.4,2-7.4,2L101.9,171.2z M105.7,156.7h3.8c1,0,1.9-0.3,2.5-0.9
		c0.7-0.6,1-1.4,1-2.5s-0.4-2-1.1-2.6c-0.7-0.7-1.7-1-2.8-1h-3.5c0.1,1,0.1,1.7,0.1,2.1V156.7z M105.7,166c0,0.8,0,1.4,0.1,1.7h4.2
		c1.1,0,2.1-0.4,2.7-1c0.7-0.7,1-1.6,1-2.6c0-1.1-0.4-2.1-1.1-2.8c-0.8-0.7-1.8-1.1-3-1.1h-3.9L105.7,166L105.7,166z"/>
	<path class="st0" d="M142.8,160.1h-9.7v6.2c0,2.1,0.2,3.6,0.6,4.3c-1.1,0.5-2.6,0.8-4.5,0.8c-0.8,0-1.5-0.3-2-0.8
		c-0.5-0.6-0.7-1.6-0.7-3.2v-13.3c0-2.5-0.2-5-0.6-7.3c1.5-0.4,3.6-0.6,6.4-0.6c0.5,1.7,0.7,3.5,0.7,5.5v4.9h9.7v-2.4
		c0-2.8-0.1-5.3-0.4-7.6c1.6-0.3,3.8-0.4,6.6-0.4c0.3,2,0.4,4.5,0.4,7.4v12.7c0,2.2,0.4,3.6,1,4.2c-1.3,0.6-2.9,0.9-4.9,0.9
		c-1.8,0-2.7-1.3-2.7-4L142.8,160.1z"/>
	<path class="st0" d="M172.7,154.3l-9.5,16.2c-1.1,0.5-2.5,0.8-4.2,0.8c-0.8,0-1.5-0.3-2-0.8c-0.5-0.6-0.7-1.6-0.7-3.2V154
		c0-2.5-0.2-5-0.6-7.3c1.5-0.4,3.6-0.6,6.4-0.6c0.5,1.7,0.7,3.5,0.7,5.5v11.9l9.7-17c1.6-0.3,3.7-0.4,6.4-0.4
		c0.3,1.7,0.4,4.2,0.4,7.4v12.7c0,2.2,0.4,3.6,1.1,4.2c-1.3,0.6-3,0.9-4.9,0.9c-0.8,0-1.5-0.3-2-0.8c-0.5-0.6-0.7-1.6-0.7-3.2
		L172.7,154.3L172.7,154.3z"/>
	<path class="st0" d="M202.7,154.3l-9.5,16.2c-1.1,0.5-2.5,0.8-4.2,0.8c-0.8,0-1.5-0.3-2-0.8c-0.5-0.6-0.7-1.6-0.7-3.2V154
		c0-2.5-0.2-5-0.6-7.3c1.5-0.4,3.6-0.6,6.4-0.6c0.5,1.7,0.7,3.5,0.7,5.5v11.9l9.7-17c1.6-0.3,3.7-0.4,6.4-0.4
		c0.3,1.7,0.4,4.2,0.4,7.4v12.7c0,2.2,0.4,3.6,1.1,4.2c-1.3,0.6-3,0.9-4.9,0.9c-0.8,0-1.5-0.3-2-0.8c-0.5-0.6-0.7-1.6-0.7-3.2
		L202.7,154.3L202.7,154.3z M198.5,139.3c1,0,1.9-0.3,2.6-0.7c0.7-0.5,1.3-0.9,1.7-1.4s0.7-0.7,0.9-0.7s0.5,0.2,1.1,0.5l1,0.6
		c-0.7,1.6-1.8,2.9-3.3,3.9s-3.2,1.6-5.1,1.6c-2.3,0-4.2-0.5-5.7-1.4c-1.4-0.9-2.2-2-2.2-3.1c0-1.4,1.3-2.1,4.1-2.1
		c0.3,0.9,0.8,1.6,1.7,2.2C196.3,139.1,197.3,139.3,198.5,139.3L198.5,139.3z"/>
</g>
<g>
	<path class="st0" d="M148.3,288.4l-2,5.6c-0.3,0.9-0.5,1.6-0.5,2.2c-0.5,0.3-1.1,0.4-2,0.4c-0.4,0-0.7-0.1-1-0.4s-0.6-0.8-0.9-1.6
		l-2.4-6.2l-0.6,5.7c0,0.2,0,0.4-0.1,0.6c0,0.3-0.1,0.4-0.1,0.6c0,0.4,0.1,0.7,0.3,0.9c-0.7,0.3-1.4,0.4-2.2,0.4
		c-0.6,0-0.8-0.3-0.8-1c0-0.2,0.1-1,0.3-2.3l0.6-3.7c0.2-1.2,0.3-1.8,0.3-1.8c0.2-1.4,0.3-2.6,0.3-3.7c0.8-0.2,1.8-0.3,3.2-0.3
		c0.6,0.9,1,1.8,1.3,2.8l2.2,6.4l1.8-5.1c0.6-1.9,1-3.1,1.1-3.7l0,0c0.8-0.2,1.9-0.3,3.4-0.3c0.3,0.9,0.5,2.2,0.7,3.8l0.9,6.4
		c0.2,1.1,0.4,1.8,0.9,2.1c-0.6,0.3-1.4,0.4-2.4,0.4c-0.4,0-0.8-0.1-1-0.4c-0.3-0.3-0.5-0.8-0.6-1.6L148.3,288.4z"/>
	<path class="st0" d="M162.6,293.8c-0.3,0.9-0.8,1.5-1.4,2.1c-0.7,0.5-1.5,0.8-2.5,0.8c-1.1,0-2-0.3-2.8-0.9c-0.7-0.6-1-1.4-1-2.4
		c0-1.3,0.7-2.4,2.1-3.1c1.4-0.8,3.2-1.3,5.6-1.5V288c0-0.7-0.2-1.3-0.7-1.7c-0.4-0.4-1-0.6-1.7-0.6s-1.2,0.2-1.7,0.7
		c-0.4,0.4-0.7,1-0.7,1.6c-1.7,0-2.6-0.5-2.6-1.4c0-0.7,0.5-1.3,1.5-1.9s2.3-0.8,3.9-0.8c1.5,0,2.8,0.4,3.7,1.1s1.4,1.7,1.4,2.9v6.2
		c0,1.1,0.2,1.8,0.6,2.1c-0.7,0.3-1.5,0.4-2.5,0.4c-0.4,0-0.7-0.1-0.9-0.4s-0.4-0.8-0.4-1.6L162.6,293.8z M159.9,294.6
		c0.7,0,1.3-0.3,1.8-1c0.6-0.7,0.8-1.4,0.9-2.3v-1.1c-2.9,0.3-4.4,1.2-4.4,2.8c0,0.5,0.2,0.9,0.5,1.2
		C158.9,294.5,159.3,294.7,159.9,294.6L159.9,294.6z"/>
	<path class="st0" d="M172.2,290.1c0,1.4,0.3,2.5,0.9,3.4c0.6,0.9,1.3,1.3,2.3,1.3c0.7,0,1.3-0.1,1.8-0.4c0.5-0.2,0.8-0.5,1.1-0.7
		c0.2-0.2,0.4-0.3,0.6-0.3c0.2,0,0.4,0.1,0.7,0.2l0.5,0.3c-0.4,0.8-1.1,1.5-2,2s-2,0.8-3.1,0.8c-1.9,0-3.4-0.6-4.6-1.7
		c-1.1-1.1-1.7-2.6-1.7-4.5c0-2,0.6-3.6,1.8-4.9c1.2-1.2,2.8-1.9,4.8-1.9c1.4,0,2.5,0.3,3.4,0.9s1.3,1.3,1.3,2
		c0,0.8-0.8,1.2-2.5,1.2c-0.2-0.7-0.4-1.2-0.8-1.7c-0.4-0.4-0.9-0.6-1.4-0.6c-0.8,0-1.5,0.4-2.1,1.3
		C172.5,287.6,172.2,288.7,172.2,290.1L172.2,290.1z"/>
	<path class="st0" d="M188.8,285.6c0,0.8,0.1,1.4,0.1,1.9v6.4c0,1.1,0.2,1.8,0.6,2.1c-0.7,0.3-1.5,0.4-2.5,0.4
		c-0.4,0-0.7-0.1-0.9-0.4s-0.4-0.8-0.4-1.6v-6.6c0-0.7,0-1.4-0.1-2.1h-0.2c-1.4,0-2.6,0.1-3.8,0.3c-0.2-0.6-0.3-1.3-0.3-2
		c1-0.1,2.3-0.1,3.9-0.1h5.6c1.2,0,1.9-0.1,2.2-0.3c0.3,0.4,0.5,0.9,0.5,1.4s-0.7,0.7-2,0.7L188.8,285.6z"/>
	<path class="st0" d="M194,290.5c0-2,0.6-3.6,1.7-4.8c1.2-1.2,2.6-1.9,4.5-1.9c1.8,0,3.1,0.5,4,1.4s1.4,2.2,1.4,3.8
		c0,0.6-0.2,1.1-0.6,1.6h-7.5c0.1,1.3,0.4,2.3,1,3.1s1.4,1.2,2.4,1.2c0.7,0,1.3-0.1,1.7-0.3c0.5-0.2,0.8-0.5,1.1-0.7
		s0.4-0.3,0.6-0.3s0.4,0.1,0.7,0.2l0.5,0.3c-0.4,0.8-1.1,1.4-2,1.9s-2,0.7-3.1,0.7c-1.9,0-3.4-0.6-4.6-1.7
		C194.6,293.7,194,292.2,194,290.5L194,290.5z M200,285.6c-0.6,0-1.2,0.3-1.6,0.9s-0.7,1.3-0.9,2.3h4.8
		C202.2,286.7,201.4,285.6,200,285.6L200,285.6z"/>
	<path class="st0" d="M208.4,287.8c0-1.3-0.1-2.5-0.3-3.7c0.8-0.2,1.8-0.3,3.2-0.3c0.2,0.9,0.4,1.8,0.4,2.8v0.1
		c0.3-0.9,0.8-1.7,1.4-2.2c0.7-0.5,1.5-0.8,2.5-0.8c1.4,0,2.5,0.5,3.4,1.6s1.3,2.5,1.3,4.2c0,2.1-0.6,3.8-1.7,5.1
		c-1.1,1.3-2.6,2-4.5,2c-0.9,0-1.7-0.2-2.3-0.7v4c0,1.1,0.1,1.8,0.3,2.2c-0.6,0.3-1.4,0.4-2.3,0.4c-0.4,0-0.8-0.1-1-0.4
		s-0.4-0.8-0.4-1.6L208.4,287.8L208.4,287.8z M214.3,285.5c-0.7,0-1.3,0.4-1.8,1.3s-0.8,1.9-0.8,2.9v4.2c0.6,0.5,1.3,0.7,2.2,0.7
		c0.8,0,1.5-0.4,2-1.3s0.7-2.1,0.7-3.5c0-1.3-0.2-2.3-0.7-3.1C215.5,285.9,215,285.5,214.3,285.5L214.3,285.5z"/>
	<path class="st0" d="M225.9,290.1c0,1.4,0.3,2.5,0.9,3.4s1.3,1.3,2.3,1.3c0.7,0,1.3-0.1,1.8-0.4c0.5-0.2,0.8-0.5,1.1-0.7
		c0.2-0.2,0.4-0.3,0.6-0.3s0.4,0.1,0.7,0.2l0.5,0.3c-0.4,0.8-1.1,1.5-2,2s-2,0.8-3.1,0.8c-1.9,0-3.4-0.6-4.6-1.7
		c-1.1-1.1-1.7-2.6-1.7-4.5c0-2,0.6-3.6,1.8-4.9c1.2-1.2,2.8-1.9,4.8-1.9c1.4,0,2.5,0.3,3.4,0.9s1.3,1.3,1.3,2
		c0,0.8-0.8,1.2-2.5,1.2c-0.2-0.7-0.4-1.2-0.8-1.7c-0.4-0.4-0.9-0.6-1.4-0.6c-0.8,0-1.5,0.4-2.1,1.3
		C226.2,287.6,225.9,288.7,225.9,290.1L225.9,290.1z"/>
	<path class="st0" d="M236.5,287.7c0-1.3-0.1-2.5-0.3-3.7c0.8-0.2,1.8-0.3,3.2-0.3c0.2,0.9,0.4,1.8,0.4,2.8v1.9h2.1
		c1.6,0,2.9,0.3,3.9,1s1.5,1.6,1.5,2.8c0,1.2-0.6,2.2-1.7,3s-2.6,1.2-4.4,1.2h-3.4c-0.4,0-0.7-0.1-1-0.4c-0.2-0.3-0.3-0.8-0.3-1.6
		V287.7L236.5,287.7z M239.9,293.8c0,0.4,0,0.7,0,0.9h1.6c0.7,0,1.2-0.2,1.6-0.6s0.6-1,0.6-1.6c0-0.7-0.2-1.3-0.7-1.7
		c-0.4-0.4-1-0.7-1.7-0.7h-1.5L239.9,293.8L239.9,293.8z"/>
	<path class="st0" d="M253.2,290.3v3.7c0,1.1,0.1,1.8,0.3,2.2c-0.6,0.3-1.3,0.4-2.3,0.4c-0.4,0-0.8-0.1-1-0.4s-0.4-0.8-0.4-1.6v-6.7
		c0-1.3-0.1-2.5-0.3-3.7c0.8-0.2,1.8-0.3,3.2-0.3c0.2,0.9,0.4,1.8,0.4,2.8v2.9l1.6-1.8l0.9-1.1c0.3-0.3,0.7-0.8,1.1-1.3l1-1.3
		c0.8-0.1,1.9-0.1,3.1-0.1c-0.9,1.3-1.8,2.5-2.7,3.6l-1.9,2.2l3.5,4.2l0.9,1.1c0.2,0.2,0.4,0.4,0.6,0.6s0.5,0.4,0.7,0.5
		c-0.5,0.3-1.3,0.5-2.4,0.5c-1,0-2.1-0.7-3.1-2.1L253.2,290.3z"/>
	<path class="st0" d="M270.9,293.8c-0.3,0.9-0.8,1.5-1.4,2.1c-0.7,0.5-1.5,0.8-2.5,0.8c-1.1,0-2-0.3-2.8-0.9c-0.7-0.6-1-1.4-1-2.4
		c0-1.3,0.7-2.4,2.1-3.1c1.4-0.8,3.2-1.3,5.6-1.5V288c0-0.7-0.2-1.3-0.7-1.7c-0.4-0.4-1-0.6-1.7-0.6s-1.2,0.2-1.7,0.7
		c-0.4,0.4-0.7,1-0.7,1.6c-1.7,0-2.6-0.5-2.6-1.4c0-0.7,0.5-1.3,1.5-1.9s2.3-0.8,3.9-0.8c1.5,0,2.8,0.4,3.7,1.1s1.4,1.7,1.4,2.9v6.2
		c0,1.1,0.2,1.8,0.6,2.1c-0.7,0.3-1.5,0.4-2.5,0.4c-0.4,0-0.7-0.1-0.9-0.4c-0.2-0.3-0.4-0.8-0.4-1.6L270.9,293.8z M268.2,294.6
		c0.7,0,1.3-0.3,1.8-1s0.8-1.4,0.9-2.3v-1.1c-2.9,0.3-4.4,1.2-4.4,2.8c0,0.5,0.2,0.9,0.5,1.2S267.7,294.7,268.2,294.6L268.2,294.6z"
		/>
	<path class="st0" d="M280.9,290.2c-1.3,0-2.6,0.1-3.7,0.3c-0.2-0.6-0.3-1.3-0.3-2c1-0.1,2.2-0.1,3.8-0.1h0.6c1.1,0,1.8-0.1,2.1-0.3
		c0.3,0.4,0.4,0.9,0.4,1.4s-0.7,0.7-2,0.7H280.9z"/>
	<path class="st0" d="M289.7,290.3v3.7c0,1.1,0.1,1.8,0.3,2.2c-0.6,0.3-1.3,0.4-2.3,0.4c-0.4,0-0.8-0.1-1-0.4s-0.4-0.8-0.4-1.6v-6.7
		c0-1.3-0.1-2.5-0.3-3.7c0.8-0.2,1.8-0.3,3.2-0.3c0.2,0.9,0.4,1.8,0.4,2.8v2.9l1.6-1.8l0.9-1.1c0.3-0.3,0.7-0.8,1.1-1.3l1-1.3
		c0.8-0.1,1.9-0.1,3.1-0.1c-0.9,1.3-1.8,2.5-2.7,3.6l-1.9,2.2l3.5,4.2l0.9,1.1c0.2,0.2,0.4,0.4,0.6,0.6s0.5,0.4,0.7,0.5
		c-0.5,0.3-1.3,0.5-2.4,0.5c-1,0-2.1-0.7-3.1-2.1L289.7,290.3z"/>
	<path class="st0" d="M299.5,290.4c0-2,0.6-3.6,1.8-4.9c1.2-1.2,2.8-1.9,4.8-1.9c1.8,0,3.2,0.6,4.3,1.7c1.1,1.1,1.7,2.6,1.7,4.5
		c0,2-0.6,3.6-1.8,4.9c-1.2,1.2-2.8,1.9-4.8,1.9c-1.8,0-3.2-0.6-4.3-1.7C300.1,293.7,299.5,292.2,299.5,290.4L299.5,290.4z
		 M303.8,293.4c0.5,0.9,1.2,1.3,2,1.3s1.4-0.4,1.9-1.3c0.5-0.8,0.7-1.9,0.7-3.2c0-1.4-0.3-2.5-0.8-3.4s-1.2-1.3-2-1.3
		s-1.4,0.4-1.8,1.3c-0.5,0.8-0.7,1.9-0.7,3.3C303,291.4,303.3,292.5,303.8,293.4z"/>
	<path class="st0" d="M323.1,290.8h-4.9v3.1c0,1.1,0.1,1.8,0.3,2.2c-0.6,0.3-1.3,0.4-2.3,0.4c-0.4,0-0.8-0.1-1-0.4s-0.4-0.8-0.4-1.6
		v-6.7c0-1.3-0.1-2.5-0.3-3.7c0.8-0.2,1.8-0.3,3.2-0.3c0.2,0.9,0.4,1.8,0.4,2.8v2.5h4.9v-1.3c0-1.4-0.1-2.7-0.2-3.8
		c0.8-0.1,1.9-0.2,3.3-0.2c0.1,1,0.2,2.3,0.2,3.8v6.4c0,1.1,0.2,1.8,0.5,2.1c-0.7,0.3-1.5,0.4-2.5,0.4c-0.9,0-1.4-0.7-1.4-2
		L323.1,290.8z"/>
	<path class="st0" d="M332,287.7c0-1.2-0.1-2.4-0.3-3.6c0.9-0.2,2-0.3,3.3-0.3h7.1c0.1,0.9,0.2,2.1,0.2,3.7v7.1
		c0.8,0,1.4-0.1,1.7-0.2c0.3,0.4,0.5,0.8,0.5,1.3v2.2c0,1.1,0.2,1.8,0.5,2.1c-0.6,0.3-1.3,0.4-2.2,0.4c-0.8,0-1.2-0.7-1.2-2v-2H332
		v1.5c0,1.1,0.1,1.8,0.3,2.1c-0.6,0.3-1.3,0.4-2.1,0.4c-0.3,0-0.6-0.1-0.8-0.4c-0.2-0.3-0.3-0.8-0.3-1.6v-3.7l1.4-0.1
		c1.1-0.5,1.7-2.2,1.7-5.1L332,287.7z M335,285.6c0,0.8,0.1,1.4,0.1,1.9v1.7c0,2.3-0.4,4.1-1.2,5.4h5v-6.8c0-0.7,0-1.4-0.1-2.1
		L335,285.6L335,285.6z"/>
	<path class="st0" d="M355.4,287.9l-4.8,8.2c-0.6,0.3-1.3,0.4-2.1,0.4c-0.4,0-0.8-0.1-1-0.4s-0.4-0.8-0.4-1.6v-6.7
		c0-1.3-0.1-2.5-0.3-3.7c0.8-0.2,1.8-0.3,3.2-0.3c0.2,0.9,0.4,1.8,0.4,2.8v6.1l4.9-8.6c0.8-0.1,1.9-0.2,3.2-0.2
		c0.1,0.9,0.2,2.1,0.2,3.8v6.4c0,1.1,0.2,1.8,0.6,2.1c-0.7,0.3-1.5,0.4-2.5,0.4c-0.4,0-0.8-0.1-1-0.4s-0.4-0.8-0.4-1.6L355.4,287.9
		L355.4,287.9z"/>
	<path class="st0" d="M368.7,285.6c0,0.8,0.1,1.4,0.1,1.9v6.4c0,1.1,0.2,1.8,0.6,2.1c-0.7,0.3-1.5,0.4-2.5,0.4
		c-0.4,0-0.7-0.1-0.9-0.4s-0.4-0.8-0.4-1.6v-6.6c0-0.7,0-1.4-0.1-2.1h-0.2c-1.4,0-2.6,0.1-3.8,0.3c-0.2-0.6-0.3-1.3-0.3-2
		c1-0.1,2.3-0.1,3.9-0.1h5.6c1.2,0,1.9-0.1,2.2-0.3c0.3,0.4,0.5,0.9,0.5,1.4s-0.7,0.7-2,0.7L368.7,285.6z"/>
	<path class="st0" d="M373.8,290.5c0-2,0.6-3.6,1.7-4.8c1.2-1.2,2.6-1.9,4.5-1.9c1.8,0,3.1,0.5,4,1.4s1.4,2.2,1.4,3.8
		c0,0.6-0.2,1.1-0.6,1.6h-7.5c0.1,1.3,0.4,2.3,1,3.1c0.6,0.8,1.4,1.2,2.4,1.2c0.7,0,1.3-0.1,1.7-0.3c0.5-0.2,0.8-0.5,1.1-0.7
		s0.4-0.3,0.6-0.3s0.4,0.1,0.7,0.2l0.5,0.3c-0.4,0.8-1.1,1.4-2,1.9s-2,0.7-3.1,0.7c-1.9,0-3.4-0.6-4.6-1.7
		C374.4,293.7,373.8,292.2,373.8,290.5L373.8,290.5z M379.8,285.6c-0.6,0-1.2,0.3-1.6,0.9s-0.7,1.3-0.9,2.3h4.8
		C382,286.7,381.2,285.6,379.8,285.6L379.8,285.6z"/>
	<path class="st0" d="M388.2,287.8c0-1.3-0.1-2.5-0.3-3.7c0.8-0.2,1.8-0.3,3.2-0.3c0.2,0.9,0.4,1.8,0.4,2.8v0.1
		c0.3-0.9,0.8-1.7,1.4-2.2c0.7-0.5,1.5-0.8,2.5-0.8c1.4,0,2.5,0.5,3.4,1.6s1.3,2.5,1.3,4.2c0,2.1-0.6,3.8-1.7,5.1
		c-1.1,1.3-2.6,2-4.5,2c-0.9,0-1.7-0.2-2.3-0.7v4c0,1.1,0.1,1.8,0.3,2.2c-0.6,0.3-1.4,0.4-2.3,0.4c-0.4,0-0.8-0.1-1-0.4
		s-0.4-0.8-0.4-1.6V287.8z M394.1,285.5c-0.7,0-1.3,0.4-1.8,1.3s-0.8,1.9-0.8,2.9v4.2c0.6,0.5,1.3,0.7,2.2,0.7c0.8,0,1.5-0.4,2-1.3
		s0.7-2.1,0.7-3.5c0-1.3-0.2-2.3-0.7-3.1C395.3,285.9,394.8,285.5,394.1,285.5L394.1,285.5z"/>
	<path class="st0" d="M405.8,290.1c0,1.4,0.3,2.5,0.9,3.4s1.3,1.3,2.3,1.3c0.7,0,1.3-0.1,1.8-0.4c0.5-0.2,0.8-0.5,1.1-0.7
		c0.2-0.2,0.4-0.3,0.6-0.3s0.4,0.1,0.7,0.2l0.5,0.3c-0.4,0.8-1.1,1.5-2,2s-2,0.8-3.1,0.8c-1.9,0-3.4-0.6-4.6-1.7
		c-1.1-1.1-1.7-2.6-1.7-4.5c0-2,0.6-3.6,1.8-4.9c1.2-1.2,2.8-1.9,4.8-1.9c1.4,0,2.5,0.3,3.4,0.9s1.3,1.3,1.3,2
		c0,0.8-0.8,1.2-2.5,1.2c-0.2-0.7-0.4-1.2-0.8-1.7c-0.4-0.4-0.9-0.6-1.4-0.6c-0.8,0-1.5,0.4-2.1,1.3
		C406,287.6,405.8,288.7,405.8,290.1L405.8,290.1z"/>
	<path class="st0" d="M416.4,287.7c0-1.3-0.1-2.5-0.3-3.7c0.8-0.2,1.8-0.3,3.2-0.3c0.2,0.9,0.4,1.8,0.4,2.8v1.9h2.1
		c1.6,0,2.9,0.3,3.9,1s1.5,1.6,1.5,2.8c0,1.2-0.6,2.2-1.7,3s-2.6,1.2-4.4,1.2h-3.4c-0.4,0-0.7-0.1-1-0.4c-0.2-0.3-0.3-0.8-0.3-1.6
		L416.4,287.7L416.4,287.7z M419.7,293.8c0,0.4,0,0.7,0,0.9h1.6c0.7,0,1.2-0.2,1.6-0.6s0.6-1,0.6-1.6c0-0.7-0.2-1.3-0.7-1.7
		c-0.4-0.4-1-0.7-1.7-0.7h-1.5L419.7,293.8L419.7,293.8z"/>
	<path class="st0" d="M433.1,290.3v3.7c0,1.1,0.1,1.8,0.3,2.2c-0.6,0.3-1.3,0.4-2.3,0.4c-0.4,0-0.8-0.1-1-0.4s-0.4-0.8-0.4-1.6v-6.7
		c0-1.3-0.1-2.5-0.3-3.7c0.8-0.2,1.8-0.3,3.2-0.3c0.2,0.9,0.4,1.8,0.4,2.8v2.9l1.6-1.8l0.9-1.1c0.3-0.3,0.7-0.8,1.1-1.3l1-1.3
		c0.8-0.1,1.9-0.1,3.1-0.1c-0.9,1.3-1.8,2.5-2.7,3.6l-1.9,2.2l3.5,4.2l0.9,1.1c0.2,0.2,0.4,0.4,0.6,0.6s0.5,0.4,0.7,0.5
		c-0.5,0.3-1.3,0.5-2.4,0.5c-1,0-2.1-0.7-3.1-2.1L433.1,290.3z"/>
	<path class="st0" d="M450.7,293.8c-0.3,0.9-0.8,1.5-1.4,2.1c-0.7,0.5-1.5,0.8-2.5,0.8c-1.1,0-2-0.3-2.8-0.9c-0.7-0.6-1-1.4-1-2.4
		c0-1.3,0.7-2.4,2.1-3.1c1.4-0.8,3.3-1.3,5.6-1.5V288c0-0.7-0.2-1.3-0.7-1.7c-0.4-0.4-1-0.6-1.7-0.6s-1.2,0.2-1.7,0.7
		c-0.4,0.4-0.7,1-0.7,1.6c-1.7,0-2.6-0.5-2.6-1.4c0-0.7,0.5-1.3,1.5-1.9s2.3-0.8,3.9-0.8c1.5,0,2.8,0.4,3.7,1.1s1.4,1.7,1.4,2.9v6.2
		c0,1.1,0.2,1.8,0.6,2.1c-0.7,0.3-1.5,0.4-2.5,0.4c-0.4,0-0.7-0.1-0.9-0.4s-0.4-0.8-0.4-1.6L450.7,293.8z M448,294.6
		c0.7,0,1.3-0.3,1.8-1c0.6-0.7,0.8-1.4,0.9-2.3v-1.1c-2.9,0.3-4.4,1.2-4.4,2.8c0,0.5,0.2,0.9,0.5,1.2S447.5,294.7,448,294.6
		L448,294.6z"/>
</g>
<g>
	<path class="st0" d="M176.2,197.1c-0.7,4.2-3.1,6.2-5.4,8c-6.2,5.2-12.4,10.4-18.7,15.5c-8.6,7-17.4,14-26.4,20.7
		c-3.9,3.1-5.7,6.3-5.4,11.6c1,16.3-2.3,31.7-8.8,46.5c-2.8,6.2-5.9,11.9-10.2,16.9c-4.6,5-9.8,8.8-16.6,10.1
		c-1.6,0.3-3.4,0.7-5.2,0.7c-8,0-12-4.1-12.7-12c-0.5-6.8,0.7-13.7,2.6-20.2c2.8-8.6,7.3-16.3,12.9-23.1c4.6-5.9,9.3-11.6,14.6-16.4
		c4.2-3.9,5.7-8,5.4-13.3c-0.5-6-0.3-12.2,0-18.2c0.3-12.5,5-23.1,14.2-31.7c2.3-2.3,5.2-4.1,8-5.5c2.3-1.3,4.9-1.8,7.8,0.2
		c-6.8,8.3-12.7,16.9-13.8,28c-0.7,6.8,0.2,13.5,1.3,20.8c4.7-1.8,8.1-4.7,11.9-7.2c3.7-2.4,7.5-5,11.2-7.6l10.7-7.3
		c3.7-2.8,7.3-5.5,11.1-8.1C168.3,202.6,171,198.7,176.2,197.1z M101.1,266.3c-8,7.2-13.8,15.9-18.1,25.7
		c-2.8,6.5-4.9,13.2-5.2,20.5c0,2.6-0.3,5.5,1.8,8.1c5.2-1.3,7.6-5,9.6-9.1C96.2,297.3,100.4,282.4,101.1,266.3z"/>
	<path class="st0" d="M183.1,228.5l-6.8,5.9c-3.6,2.8-7.8,3.6-12.2,3.1c-3.7-0.5-6-2.4-6.7-6.2c-0.3-1.8-0.3-3.6-0.3-5.4
		c0.5-9.4,3.7-18.2,8.6-26.4c1-1.8,2.4-3.3,4.2-4.2c1-0.7,2.9-0.5,4.2,0c1.6,0.8,1.3,2.6,0.8,4.1c-0.7,1.6-1.3,3.3-1.8,5
		c-1.5,4.9-2.9,9.6-4.1,14.5c-0.8,2.9-0.7,6-1,10.1c2.3-1.5,3.4-2.1,4.6-3.1c5.4-4.7,9.9-10.1,13.5-16.3c1.3-2.3,2.8-4.2,5.7-4.6
		c4.9-0.5,7.2,2,6.3,6.7c-0.5,3.3-1.6,6.3-2,9.6c-0.2,2.9-0.2,6.2,0.5,8.9c1,4.1,3.7,4.9,6.8,2.3c2.6-2.3,5.2-4.9,7.5-7.6
		c9.8-11.7,16.1-25.2,19-40c2.4-12.7,4.1-25.4,6.2-38.2c0.2-1.6,0.3-3.6,0.8-5.2c0.8-2.8,2.4-3.9,4.9-3.7c2.4,0.2,3.9,1.5,3.9,4.6
		c0.2,5,0.3,10.1,0,15.1c-1,13.3-1.8,26.8-5.9,39.7c-3.3,9.8-7.2,19-13,27.3c-2.6,3.7-5.5,7.3-8.8,10.4c-4.6,4.7-10.4,7.2-17.1,7
		c-7.6-0.2-13.8-2.9-16.6-10.7C184.4,230.5,183.9,229.8,183.1,228.5z"/>
	<path class="st0" d="M333.7,199.7c-0.7,4.2-2.9,5.7-4.7,7.2c-20.2,17.1-22.3,20.5-34,29.3c-7.8,6.3-16.3,11.9-24.7,17.4
		c-6.3,4.2-13.3,6.2-21,6.5c-2.6-0.2-5.4-0.5-8.1-1.3c-3.9-1.1-6.5-4.1-6.5-8.1c0-3.9,0.3-7.8,1.3-11.4
		c5.5-16.8,15.8-30.4,29.4-41.7c3.9-3.3,8.5-5.4,14-5c7.3,0.3,9.6,3.6,6.3,10.3c-3.3,7.2-7.5,13.3-13.7,18.1
		c-3.9,3.1-8.3,5.9-12.7,8.3c-2.8,1.5-4.2,3.3-5,6.2c-1.3,4.6-2.6,9.1-0.7,13.7c3.3,1.1,5.5-0.3,7.5-1.6c6.2-3.6,12.2-7.2,18.1-11.4
		c19-14,11.6-6.7,30.8-20.8c5.5-4.1,11.2-7.8,16.8-11.7C328.5,202.2,330.7,201.3,333.7,199.7z M279.7,196.8
		c-5.4,1.8-7.8,6.3-10.6,10.1c-5.9,7.5-6.3,8.6-7.2,13.5c7.3-3.6,12.9-8.9,16.6-15.8C279.9,202.5,281.4,200.2,279.7,196.8z"/>
	<path class="st0" d="M400.3,199.7c-0.7,4.2-2.9,5.7-4.7,7.2c-20.2,17.1-22.3,20.5-34,29.3c-7.8,6.3-16.3,11.9-24.7,17.4
		c-6.3,4.2-13.3,6.2-21,6.5c-2.6-0.2-5.4-0.5-8.1-1.3c-3.9-1.1-6.5-4.1-6.5-8.1c0-3.9,0.3-7.8,1.3-11.4
		c5.5-16.8,15.8-30.4,29.4-41.7c3.9-3.3,8.5-5.4,14-5c7.3,0.3,9.6,3.6,6.3,10.3c-3.3,7.2-7.5,13.3-13.7,18.1
		c-3.9,3.1-8.3,5.9-12.7,8.3c-2.8,1.5-4.2,3.3-5,6.2c-1.3,4.6-2.6,9.1-0.7,13.7c3.3,1.1,5.5-0.3,7.5-1.6c6.2-3.6,12.2-7.2,18.1-11.4
		c19-14,11.6-6.7,30.8-20.8c5.5-4.1,11.2-7.8,16.8-11.7C395.1,202.2,397.2,201.3,400.3,199.7z M346.3,196.8
		c-5.4,1.8-7.8,6.3-10.6,10.1c-5.9,7.5-6.3,8.6-7.2,13.5c7.3-3.6,12.9-8.9,16.6-15.8C346.4,202.5,347.9,200.2,346.3,196.8z"/>
	<path class="st0" d="M395.2,246.6c2-1,3.9-1.5,5.4-2.6c4.7-3.7,9.6-7.5,14-11.7c10.7-10.3,21.3-21,31.9-31.4
		c1.5-1.5,3.1-2.8,4.7-3.9c0.5-0.3,2,0.3,2.6,0.8c0.5,0.3,0.7,1.6,0.3,2.1c-0.8,1.5-2,2.9-3.1,4.4c-10.9,12.9-21.8,25.9-33,38.6
		c-3.4,3.7-7.5,6.8-11.7,9.8c-5,3.4-10.9,4.1-16.8,3.3c-5.9-0.8-8.9-3.9-9.9-9.8s-0.2-11.7,1.5-17.2c3.9-13.5,9.9-26,16.3-38.4
		l3.4-7.2c-7.5-0.7-14.3,5.5-20.8-0.2c0.5-3.7,3.3-4.4,5.5-5.2c5-1.5,10.1-3.1,15.3-3.9c4.7-0.7,7.6-2.9,9.9-7
		c4.6-7.6,9.4-15.1,14.3-22.5c1.6-2.6,3.6-4.9,5.7-7.2c2.4-2.6,3.3-2.4,8.3-1.3c0.8,2.9-1.1,5.2-2.3,7.6
		c-3.3,6.2-6.8,12.5-10.1,18.7c-1,1.8-1.8,3.6-2.6,5.5c3.3,2,8-1.1,10.4,3.3c-2,3.3-5.2,3.6-8,4.1c-5.5,0.8-8.9,3.6-11.4,8.8
		c-5.4,11.9-11.2,23.8-16.8,35.6c-2.8,6-4.6,12.4-4.7,19.2C393.6,241.4,393.5,243.8,395.2,246.6z"/>
</g>
</svg>
