<svg id="Слой_1" data-name="Слой 1" xmlns="http://www.w3.org/2000/svg" viewBox="0 0 1027.26 412.4"><defs><style>.cls-1{fill:#fff;}</style></defs><title>unit space logo vector white</title><path class="cls-1" d="M1146.08,459.89h-9.69l-105.5-132.59V459.89h-11.45V305.72h9.69l105.5,133v-133h11.45Z" transform="translate(-443.43 -305.72)"/><path class="cls-1" d="M972.75,305.72v89.64c0,22.24-5.51,38.76-16.52,49.78s-24.89,16.52-41.85,16.52c-18.72,0-33.7-5.73-45.37-17.4-11.45-11.67-17.18-28.63-17.18-50.44v-88.1H864v85.9c0,37,19.6,58.58,50.44,58.58,28.19,0,46.25-19.38,46.25-57.48v-87Z" transform="translate(-443.43 -305.72)"/><path class="cls-1" d="M1200.26,459.89V305.72h12.11V459.89Z" transform="translate(-443.43 -305.72)"/><path class="cls-1" d="M1244.3,317.17V305.72h126.2v11.45h-57V459.89h-12.11V317.17Z" transform="translate(-443.43 -305.72)"/><path class="cls-1" d="M847,514.35c0-11.23,4-20.26,12.11-27.53s19.16-11,33-11c17,0,32.6,5.95,41.41,15.64l-6.61,9q-13.21-13.21-34.36-13.21c-20.26,0-32.82,10.57-32.82,27.09,0,42.95,79.73,25.55,79.73,79.07,0,12.11-4.62,21.8-14.1,29.29s-21.14,11.23-35,11.23A71.22,71.22,0,0,1,862.17,628c-9-4.18-15.42-9.47-19.16-16.3l7.27-8.37c8.81,11.67,25.11,19.16,39.86,19.16,10.13,0,18.72-2.64,25.77-7.71,7.27-5.07,10.79-12.11,10.79-21.14C926.7,550.25,847,565.67,847,514.35Z" transform="translate(-443.43 -305.72)"/><path class="cls-1" d="M987.93,632H975.81V477.79c2.86,0,9,0,18.72-.22s16.08-.22,18.94-.22c42.73,0,54.84,23.57,54.84,46.47,0,13.21-4.62,24.45-13.87,33.48s-22.91,13.66-41,13.66c-9.25,0-17.84-.22-25.55-.88Zm0-142.72V558.4c9.47.66,17.84,1.1,25.11,1.1,27.31,0,42.51-14.1,42.51-35.9,0-21.14-13-34.8-41-34.8C1006.43,488.8,997.62,489,987.93,489.24Z" transform="translate(-443.43 -305.72)"/><path class="cls-1" d="M1070.74,632l67.17-155.49h9.91L1215,632h-13l-22.46-52.42h-74L1083.07,632Zm71.8-138.75-32.16,74.88h64.09Z" transform="translate(-443.43 -305.72)"/><path class="cls-1" d="M1351.33,617c-10.57,10.57-29.29,17-47.79,17-23.13,0-41.63-7.27-55.94-21.58s-21.36-33.48-21.36-57.48c0-22.69,6.83-41.41,20.7-56.38,13.88-15.2,32.16-22.69,54.84-22.69,19.6,0,35,4.85,46.69,14.54l-5.73,9c-10.57-8.15-24.23-12.11-40.75-12.11q-28.08,0-45.59,19.16c-11.67,12.55-17.4,28.85-17.4,48.45,0,20,5.95,36.34,18.06,48.89s28,18.72,47.35,18.72c16.08,0,30.17-4.85,42.07-14.54Z" transform="translate(-443.43 -305.72)"/><path class="cls-1" d="M1383.26,632V477.79h85.24v11.45h-73.12V548h66.51V559.5h-66.51v61h75.32V632Z" transform="translate(-443.43 -305.72)"/><path class="cls-1" d="M868.29,690a9.57,9.57,0,0,1-3.16,7.21,10.74,10.74,0,0,1-7.66,3q-7.27,0-11-6.79l4.06-2.87q2.39,5,6.92,5a5.58,5.58,0,0,0,4-1.52,5,5,0,0,0,1.6-3.8,3.94,3.94,0,0,0-1.43-3.24,27.07,27.07,0,0,0-5.76-2.9q-7.54-3.1-7.54-8.67a8.17,8.17,0,0,1,2.83-6.24,9.33,9.33,0,0,1,6.45-2.49q5.42,0,8.32,5.15l-3.65,2.59q-1.88-3.07-4.67-3.07a4.41,4.41,0,0,0-3,1.16,3.43,3.43,0,0,0-1.3,2.59,3.27,3.27,0,0,0,1.16,2.56,17.81,17.81,0,0,0,4.91,2.56,19.21,19.21,0,0,1,6.75,4A8,8,0,0,1,868.29,690Z" transform="translate(-443.43 -305.72)"/><path class="cls-1" d="M906.23,683.47a16,16,0,0,1-5,11.94,17.37,17.37,0,0,1-24,0,16.82,16.82,0,0,1,0-23.76,17.22,17.22,0,0,1,24,0A15.94,15.94,0,0,1,906.23,683.47Zm-5.39,0a11.4,11.4,0,0,0-3.39-8.32,11.12,11.12,0,0,0-8.2-3.43,11,11,0,0,0-8.19,3.43,12.15,12.15,0,0,0,0,16.72,11.56,11.56,0,0,0,16.42,0A11.51,11.51,0,0,0,900.84,683.48Z" transform="translate(-443.43 -305.72)"/><path class="cls-1" d="M924.89,649.32a6.84,6.84,0,0,0-3.65-1.13q-2.87,0-2.87,5.46v14h6.07v4.95h-6.07v26.64H913V672.62h-4.16v-4.95H913V653q0-9.86,8.05-9.86a9,9,0,0,1,3.79.92Z" transform="translate(-443.43 -305.72)"/><path class="cls-1" d="M939,672.62H934v26.64h-5.25V672.62h-3.62v-4.95h3.62V654.13H934v13.54H939Z" transform="translate(-443.43 -305.72)"/><path class="cls-1" d="M989.12,667.67l-14.36,32.84-10.92-22.93L953,700.52l-14.39-32.85h5.66L953.16,689l10.68-22.59L974.51,689l9-21.31Z" transform="translate(-443.43 -305.72)"/><path class="cls-1" d="M1022.68,699.26h-5.29v-5.32q-4.4,6.31-11.46,6.31A14.08,14.08,0,0,1,995,695.46a17.21,17.21,0,0,1-4.33-12,17,17,0,0,1,4.32-12,14.29,14.29,0,0,1,11-4.69,13.06,13.06,0,0,1,6.69,1.81,12.54,12.54,0,0,1,4.71,4.6v-5.53h5.29Zm-4.95-15.79a12.2,12.2,0,0,0-3.1-8.7,10.42,10.42,0,0,0-7.95-3.31,9.7,9.7,0,0,0-7.57,3.43,12.37,12.37,0,0,0-3,8.51,12.82,12.82,0,0,0,3.05,8.75,9.85,9.85,0,0,0,7.76,3.5,10,10,0,0,0,7.78-3.45A12.63,12.63,0,0,0,1017.74,683.47Z" transform="translate(-443.43 -305.72)"/><path class="cls-1" d="M1049.05,667.74l-1.54,5.19a5,5,0,0,0-3.48-1.19q-3.48,0-5.46,3.58a16.42,16.42,0,0,0-1.81,8.08v15.86h-5.25V667.67h5.12v5q3.14-5.87,7.95-5.87A12.1,12.1,0,0,1,1049.05,667.74Z" transform="translate(-443.43 -305.72)"/><path class="cls-1" d="M1082.21,684.8h-26.54a11.59,11.59,0,0,0,3.48,7.51,10.06,10.06,0,0,0,7.27,3q6.86,0,10.06-5l4.06,2.73a16.5,16.5,0,0,1-14.12,7.27,14.68,14.68,0,0,1-11.15-4.9,16.78,16.78,0,0,1-4.57-11.89,16.61,16.61,0,0,1,4.59-11.8,15.21,15.21,0,0,1,22.33,0,16.57,16.57,0,0,1,4.61,11.8Zm-4.88-4.4a12.44,12.44,0,0,0-4.09-6.31,10.51,10.51,0,0,0-6.82-2.63,10.15,10.15,0,0,0-6.72,2.61,12.11,12.11,0,0,0-4,6.33Z" transform="translate(-443.43 -305.72)"/><path class="cls-1" d="M1138.66,699.26h-5V693.8a13.69,13.69,0,0,1-11.87,6.45,14,14,0,0,1-10.8-4.74,16.83,16.83,0,0,1-4.32-11.77q0-7.44,4.25-12.2a14,14,0,0,1,10.93-4.76q7.2,0,11.8,6.48,0-.85-.14-3t-.14-3.45V644.07h5.29Zm-5-16.2a11.54,11.54,0,0,0-3.14-8.32,10.34,10.34,0,0,0-7.78-3.27,9.82,9.82,0,0,0-7.66,3.38,12.27,12.27,0,0,0-3,8.49,13.1,13.1,0,0,0,3,8.87,10.54,10.54,0,0,0,15.62,0A13.45,13.45,0,0,0,1133.65,683.06Z" transform="translate(-443.43 -305.72)"/><path class="cls-1" d="M1176.49,684.8H1150a11.59,11.59,0,0,0,3.48,7.51,10.06,10.06,0,0,0,7.27,3q6.86,0,10.06-5l4.06,2.73a16.5,16.5,0,0,1-14.12,7.27,14.68,14.68,0,0,1-11.15-4.9,16.78,16.78,0,0,1-4.57-11.89,16.61,16.61,0,0,1,4.59-11.8,15.21,15.21,0,0,1,22.33,0,16.57,16.57,0,0,1,4.61,11.8Zm-4.88-4.4a12.44,12.44,0,0,0-4.09-6.31,10.51,10.51,0,0,0-6.82-2.63,10.15,10.15,0,0,0-6.72,2.61,12.11,12.11,0,0,0-4,6.33Z" transform="translate(-443.43 -305.72)"/><path class="cls-1" d="M1208.9,667.67l-15.52,32.58-15.49-32.58h5.67l9.81,22.06,9.87-22.06Z" transform="translate(-443.43 -305.72)"/><path class="cls-1" d="M1241.89,684.8h-26.54a11.59,11.59,0,0,0,3.48,7.51,10.06,10.06,0,0,0,7.27,3q6.86,0,10.06-5l4.06,2.73a16.5,16.5,0,0,1-14.12,7.27,14.68,14.68,0,0,1-11.15-4.9,16.78,16.78,0,0,1-4.57-11.89,16.61,16.61,0,0,1,4.59-11.8,15.21,15.21,0,0,1,22.33,0,16.57,16.57,0,0,1,4.61,11.8Zm-4.88-4.4a12.44,12.44,0,0,0-4.09-6.31,10.51,10.51,0,0,0-6.82-2.63,10.15,10.15,0,0,0-6.72,2.61,12.11,12.11,0,0,0-4,6.33Z" transform="translate(-443.43 -305.72)"/><path class="cls-1" d="M1253.55,699.26h-5.25V644.07h5.25Z" transform="translate(-443.43 -305.72)"/><path class="cls-1" d="M1293.8,683.47a16,16,0,0,1-5,11.94,17.37,17.37,0,0,1-24,0,16.82,16.82,0,0,1,0-23.76,17.22,17.22,0,0,1,24,0A15.94,15.94,0,0,1,1293.8,683.47Zm-5.39,0a11.4,11.4,0,0,0-3.39-8.32,11.12,11.12,0,0,0-8.2-3.43,11,11,0,0,0-8.19,3.43,12.15,12.15,0,0,0,0,16.72,11.56,11.56,0,0,0,16.42,0A11.51,11.51,0,0,0,1288.41,683.48Z" transform="translate(-443.43 -305.72)"/><path class="cls-1" d="M1332,683.47a17.27,17.27,0,0,1-4.28,12.06,14.09,14.09,0,0,1-10.93,4.72,13.74,13.74,0,0,1-11.91-6.31q0,.68.19,2.58t.19,2.81v18.79H1300V667.67h4.88v5.53q4.61-6.41,11.8-6.41a14.22,14.22,0,0,1,11,4.78A17,17,0,0,1,1332,683.47Zm-5.39.07a12.52,12.52,0,0,0-3.05-8.65,9.93,9.93,0,0,0-7.76-3.43,10.1,10.1,0,0,0-7.73,3.48,12.24,12.24,0,0,0-3.19,8.6,12.61,12.61,0,0,0,3,8.68,10.11,10.11,0,0,0,7.95,3.43,9.82,9.82,0,0,0,7.71-3.45A12.63,12.63,0,0,0,1326.62,683.53Z" transform="translate(-443.43 -305.72)"/><path class="cls-1" d="M1380.55,699.26h-5.25V680.12q0-8.66-5.94-8.66-7.27,0-7.27,10.47v17.33h-5.22V680.12q0-8.66-5.73-8.66a6.27,6.27,0,0,0-5.46,3q-2,3-2,8.48v16.34h-5.25V667.67h5v4.78q3.62-5.66,8.8-5.66a9,9,0,0,1,5.42,1.74,8.65,8.65,0,0,1,3.14,3.92,10.91,10.91,0,0,1,3.51-3.85,10.21,10.21,0,0,1,5.8-1.81q10.4,0,10.4,12.93Z" transform="translate(-443.43 -305.72)"/><path class="cls-1" d="M1418.28,684.8h-26.54a11.59,11.59,0,0,0,3.48,7.51,10.06,10.06,0,0,0,7.27,3q6.86,0,10.06-5l4.06,2.73a16.5,16.5,0,0,1-14.12,7.27,14.68,14.68,0,0,1-11.15-4.9,16.78,16.78,0,0,1-4.57-11.89,16.61,16.61,0,0,1,4.59-11.8,15.21,15.21,0,0,1,22.33,0,16.57,16.57,0,0,1,4.61,11.8Zm-4.88-4.4a12.44,12.44,0,0,0-4.09-6.31,10.51,10.51,0,0,0-6.82-2.63,10.15,10.15,0,0,0-6.72,2.61,12.11,12.11,0,0,0-4,6.33Z" transform="translate(-443.43 -305.72)"/><path class="cls-1" d="M1450.62,699.26h-5.25v-19q0-4.61-1.62-6.7t-5.44-2.1a7.18,7.18,0,0,0-6.21,3.38,14.53,14.53,0,0,0-2.22,8.43v16h-5.25V667.67h5v4.54a11.46,11.46,0,0,1,9.89-5.42q11.05,0,11.05,12.93Z" transform="translate(-443.43 -305.72)"/><path class="cls-1" d="M1468.76,672.62h-4.95v26.64h-5.25V672.62h-3.62v-4.95h3.62V654.13h5.25v13.54h4.95Z" transform="translate(-443.43 -305.72)"/><path class="cls-1" d="M600.33,662.57c-86.51,0-156.89-70.38-156.89-156.89s70.38-156.89,156.89-156.89,156.89,70.38,156.89,156.89S686.84,662.57,600.33,662.57Zm0-304.79c-81.55,0-147.89,66.34-147.89,147.89s66.34,147.89,147.89,147.89,147.89-66.34,147.89-147.89S681.88,357.78,600.33,357.78Z" transform="translate(-443.43 -305.72)"/><circle class="cls-1" cx="81.88" cy="73.53" r="39.42"/><circle class="cls-1" cx="309.29" cy="201.14" r="20.51"/></svg>